<svg width="112" height="112" viewBox="0 0 112 112" fill="none" xmlns="http://www.w3.org/2000/svg">
<circle cx="56" cy="56" r="55" stroke="#39394C" stroke-width="2"/>
<path d="M72.8974 83H36.1026C34.7359 83 34 81.814 34 80.84V31.025C34 30.2674 34.7359 29 36.1026 29H72.8974C74.2641 29 75 30.2942 75 31.16V80.84C75 81.7058 74.2641 83 72.8974 83Z" stroke="#39394C" stroke-width="2" stroke-miterlimit="10"/>
<path d="M40 42H69" stroke="#39394C" stroke-width="2" stroke-miterlimit="10"/>
<path d="M40 49H69" stroke="#39394C" stroke-width="2" stroke-miterlimit="10"/>
<path d="M40 56H58" stroke="#39394C" stroke-width="2" stroke-miterlimit="10"/>
<path d="M82.128 88C81.8907 88 81.6535 87.9379 81.4162 87.8138L75.0104 84.2768L68.5452 87.8138C68.308 87.9379 68.0707 88 67.8335 88C67.7742 88 67.6555 88 67.5962 88C67.181 87.9379 66.8845 87.6897 66.6472 87.3795C66.4099 87.0692 66.3506 86.6348 66.4099 86.2005L67.6555 78.7542L62.436 73.4177C62.0208 72.9833 61.9021 72.3628 62.0801 71.8043C62.258 71.2458 62.7325 70.8115 63.2663 70.7494L70.4433 69.6325L73.6462 62.8687C73.7648 62.5585 74.0021 62.3103 74.2986 62.1862C74.4766 62.0621 74.7138 62 74.9511 62C75.5442 62 76.0187 62.3103 76.3153 62.8687L79.5775 69.6325L86.7544 70.7494C87.051 70.8115 87.4069 70.9356 87.5848 71.1838C87.8814 71.494 88 71.8663 88 72.3007C88 72.7351 87.8221 73.1074 87.5255 73.4177L82.3652 78.7542L83.6108 86.2005C83.6701 86.5107 83.6108 86.8831 83.4329 87.1933C83.1956 87.6897 82.6618 88 82.128 88Z" fill="#FF4C55"/>
</svg>
