<svg width="112" height="112" viewBox="0 0 112 112" fill="none" xmlns="http://www.w3.org/2000/svg">
<circle cx="56" cy="56" r="55" stroke="#39394C" stroke-width="2"/>
<path d="M49.0578 79.5485H65.8755M50.408 81.9788H64.5253M33.157 52.2743V53.8945M33.157 57.135V55.5148M30.7266 54.7046H32.3468M35.5873 54.7046H33.9671M78.3891 25V26.6203M78.3891 29.8608V28.2405M75.9585 27.4304H77.5788M80.8194 27.4304H79.1991M63.2667 77.1183H60.8363M62.6841 31.6287C61.3726 31.1394 59.9588 30.8724 58.4871 30.8724L62.6841 31.6287ZM70.8009 43.2789C70.7361 38.8321 68.399 34.9365 64.9353 32.7465L70.8009 43.2789ZM59.2161 77.1183H48.4144C48.1161 77.1183 47.8743 76.8764 47.8743 76.5781V72.2574C47.8743 71.959 48.1161 71.7172 48.4144 71.7172H66.2371C66.5354 71.7172 66.7772 71.959 66.7772 72.2574V76.5781C66.7772 76.8764 66.5354 77.1183 66.2371 77.1183H64.8869H59.2161ZM52.2767 84.8142C53.0704 86.1264 55.0474 87.1098 57.5958 87.1098C60.1442 87.1098 62.1212 86.1264 62.9149 84.8142H52.2767ZM57.3155 26.2426C67.4413 26.2426 75.7537 34.5 75.9046 44.7091C75.9046 49.063 74.3933 53.2667 71.5217 56.5696C68.3481 60.1728 66.6856 64.9771 66.6856 70.2319C66.6856 71.1328 66.0811 71.733 65.1743 71.733H49.759C48.8522 71.733 48.2476 71.1328 48.2476 70.2319C48.2476 65.1273 46.4341 60.323 42.9581 55.9691C39.6332 51.9155 38.4241 46.811 39.1798 41.7064C40.5038 32.9928 48.5568 26.2426 57.3155 26.2426ZM37.3426 32.0211C37.3426 33.2142 36.3754 34.1814 35.1823 34.1814C33.9892 34.1814 33.022 33.2142 33.022 32.0211C33.022 30.828 33.9892 29.8608 35.1823 29.8608C36.3754 29.8608 37.3426 30.828 37.3426 32.0211ZM41.3932 66.168C41.3932 67.8085 40.0633 69.1386 38.4228 69.1386C36.7822 69.1386 35.4523 67.8085 35.4523 66.168C35.4523 64.5274 36.7822 63.1975 38.4228 63.1975C40.0633 63.1975 41.3932 64.5274 41.3932 66.168ZM85.4101 52.2743C85.4101 53.9148 84.0803 55.2447 82.4397 55.2447C80.7991 55.2447 79.4692 53.9148 79.4692 52.2743C79.4692 50.6337 80.7991 49.3038 82.4397 49.3038C84.0803 49.3038 85.4101 50.6337 85.4101 52.2743Z" stroke="#39394C" stroke-width="2" stroke-linecap="round"/>
<path d="M85.4101 38.5021C85.4101 37.9055 84.9264 37.4219 84.3301 37.4219C83.7333 37.4219 83.25 37.9055 83.25 38.5021C83.25 39.0986 83.7333 39.5822 84.3301 39.5822C84.9264 39.5822 85.4101 39.0986 85.4101 38.5021Z" fill="#FF4C55"/>
<path d="M52.3061 49.4824C52.0867 49.7894 52.2418 50.2208 52.6057 50.3179L56.7323 51.4233L54.4528 59.9318L62.3736 48.8263C62.593 48.5193 62.438 48.0879 62.0741 47.9909L57.9475 46.8854L60.227 38.377L52.3061 49.4824Z" fill="#FF4C55"/>
<path d="M26 46.3331C26 45.7365 26.4836 45.2529 27.0802 45.2529C27.6767 45.2529 28.1603 45.7365 28.1603 46.3331C28.1603 46.9297 27.6767 47.4133 27.0802 47.4133C26.4836 47.4133 26 46.9297 26 46.3331Z" fill="#FF4C55"/>
<path d="M31.6699 40.6627C31.6699 40.2153 32.0326 39.8525 32.48 39.8525C32.9275 39.8525 33.2902 40.2153 33.2902 40.6627C33.2902 41.1101 32.9275 41.4728 32.48 41.4728C32.0326 41.4728 31.6699 41.1101 31.6699 40.6627Z" fill="#FF4C55"/>
<path d="M82.4387 43.3628C82.4387 42.9154 82.0758 42.5527 81.6287 42.5527C81.1812 42.5527 80.8184 42.9154 80.8184 43.3628C80.8184 43.8103 81.1812 44.173 81.6287 44.173C82.0758 44.173 82.4387 43.8103 82.4387 43.3628Z" fill="#FF4C55"/>
</svg>
