<svg width="112" height="112" viewBox="0 0 112 112" fill="none" xmlns="http://www.w3.org/2000/svg">
<circle cx="56" cy="56" r="55" stroke="#39394C" stroke-width="2"/>
<g clip-path="url(#clip0_341_3522)">
<path d="M77 54.6526C84.2444 54.6526 90.1918 45.6824 90.8182 34.2426C90.8786 33.1397 89.9773 32.2422 88.8727 32.2422H83.7344" stroke="#39394C" stroke-width="2" stroke-linecap="round"/>
<path d="M89.7461 29.4026V24V29.4026Z" fill="#39394C"/>
<path d="M89.7461 29.4026V24" stroke="#39394C" stroke-width="2" stroke-miterlimit="10" stroke-linecap="round"/>
<path d="M93.5742 34.2754H98.9998H93.5742Z" fill="#39394C"/>
<path d="M93.5742 34.2754H98.9998" stroke="#39394C" stroke-width="2" stroke-miterlimit="10" stroke-linecap="round"/>
<path d="M93.2754 30.2316L97.1032 26.4199L93.2754 30.2316Z" fill="#39394C"/>
<path d="M93.2754 30.2316L97.1032 26.4199" stroke="#39394C" stroke-width="2" stroke-miterlimit="10" stroke-linecap="round"/>
<path d="M51.4101 54.6526C44.1656 54.6526 38.2181 45.6824 37.5916 34.2426C37.5312 33.1397 38.4325 32.2422 39.5371 32.2422H44.5409" stroke="#39394C" stroke-width="2" stroke-linecap="round"/>
<path d="M67.7232 79.4046V61.5322H60.5742V79.4046H67.7232Z" fill="#FF4C55"/>
<path d="M56.8525 87.2465C55.4169 87.2465 54.4489 85.7789 55.014 84.4592L55.7373 82.7703C56.0524 82.0346 56.7756 81.5576 57.5758 81.5576H70.8352C71.6355 81.5576 72.3587 82.0346 72.6737 82.7703L73.397 84.4592C73.9622 85.7789 72.9941 87.2465 71.5585 87.2465H56.8525Z" stroke="#39394C" stroke-width="2" stroke-linejoin="round"/>
<path d="M81.7634 30.6924C82.8729 30.6924 83.7744 31.5966 83.7246 32.705C83.3701 40.5967 81.2425 47.6808 77.9965 52.9255C74.4284 58.6905 69.543 62.1877 64.2044 62.1877C58.8659 62.1877 53.9805 58.6905 50.4124 52.9255C47.1663 47.6808 45.0388 40.5967 44.6843 32.705C44.6345 31.5966 45.536 30.6924 46.6456 30.6924H81.7634Z" stroke="#39394C" stroke-width="2" stroke-linejoin="round"/>
<path d="M77.7262 35.5928C77.7262 45.2615 73.7832 53.4528 68.3359 56.254" stroke="#39394C" stroke-width="2" stroke-linecap="round" stroke-linejoin="round"/>
<path d="M68.1701 78.5107H60.1275C59.3872 78.5107 58.7871 79.1109 58.7871 79.8512C58.7871 80.5915 59.3872 81.1916 60.1275 81.1916H68.1701C68.9104 81.1916 69.5105 80.5915 69.5105 79.8512C69.5105 79.1109 68.9104 78.5107 68.1701 78.5107Z" stroke="#39394C" stroke-width="2" stroke-linejoin="round"/>
<path d="M43.9415 87.208H31.2479M22.1084 87.208H27.1859M15 93.2754H32.2634M37.8486 93.2754H43.9415" stroke="#39394C" stroke-width="2" stroke-linejoin="round"/>
<path d="M29.6618 45.8657C29.6618 47.6342 28.2217 49.0703 26.4422 49.0703C24.6628 49.0703 23.2227 47.6342 23.2227 45.8657C23.2227 44.0972 24.6628 42.6611 26.4422 42.6611C28.2217 42.6611 29.6618 44.0972 29.6618 45.8657Z" stroke="#39394C" stroke-width="2" stroke-linejoin="round"/>
</g>
<defs>
<clipPath id="clip0_341_3522">
<rect width="84" height="69.6096" fill="white" transform="translate(15 24)"/>
</clipPath>
</defs>
</svg>
