<svg width="20" height="20" viewBox="0 0 20 20" fill="none" xmlns="http://www.w3.org/2000/svg">
<rect width="20" height="20" rx="4" fill="#FF4C55"/>
<path d="M5.72701 8.72522C5.3478 8.3237 4.71489 8.30562 4.31338 8.68483C3.91186 9.06404 3.89378 9.69695 4.27299 10.0985L5.72701 8.72522ZM8.7037 13.3334L7.97669 14.02L8.7037 14.7898L9.43072 14.02L8.7037 13.3334ZM15.727 7.35337C16.1062 6.95185 16.0881 6.31895 15.6866 5.93973C15.2851 5.56052 14.6522 5.57861 14.273 5.98012L15.727 7.35337ZM4.27299 10.0985L7.97669 14.02L9.43072 12.6468L5.72701 8.72522L4.27299 10.0985ZM9.43072 14.02L15.727 7.35337L14.273 5.98012L7.97669 12.6468L9.43072 14.02Z" fill="white"/>
</svg>
