<svg width="112" height="112" viewBox="0 0 112 112" fill="none" xmlns="http://www.w3.org/2000/svg">
<circle cx="56" cy="56" r="55" stroke="#39394C" stroke-width="2"/>
<path d="M54.8626 59.0896L40.0771 73.8754M54.8626 59.0896L75.7251 59.0425C75.699 70.566 66.3366 79.9266 54.8154 79.9526C49.0546 79.9657 43.8441 77.6424 40.0771 73.8754L54.8626 59.0896ZM54.8626 59.0896L54.9097 38.2266C43.3885 38.2527 34.0261 47.6132 34.0001 59.1368C33.987 64.8984 36.3104 70.1087 40.0771 73.8754L54.8626 59.0896Z" stroke="#39394C" stroke-width="2" stroke-miterlimit="10"/>
<path d="M83.9056 50.8591C83.9316 39.3355 74.6114 30.0172 63.0902 30.0432L63.043 50.9062L83.9056 50.8591Z" fill="#FF4C55" stroke="#FF4C55" stroke-width="2" stroke-miterlimit="10"/>
<path d="M67.3376 34.7534L67.3086 47.582L70.8237 47.5741" stroke="white" stroke-width="2" stroke-miterlimit="10"/>
<path d="M79.0898 28.977V22" stroke="#39394C" stroke-width="2" stroke-miterlimit="10"/>
<path d="M83.9961 35.2695H90.9515" stroke="#39394C" stroke-width="2" stroke-miterlimit="10"/>
<path d="M83.6133 30.0474L88.5205 25.125" stroke="#39394C" stroke-width="2" stroke-miterlimit="10"/>
</svg>
