<svg width="112" height="112" viewBox="0 0 112 112" fill="none" xmlns="http://www.w3.org/2000/svg">
<circle cx="56" cy="56" r="55" stroke="#39394C" stroke-width="2"/>
<path d="M88.649 92H67.445C66.6675 92 66.0312 91.3727 66.0312 90.6061V47.3939C66.0312 46.6273 66.6675 46 67.445 46H88.649C89.4265 46 90.0625 46.6273 90.0625 47.3939V90.6061C90.0625 91.3727 89.4265 92 88.649 92Z" stroke="#39394C" stroke-width="2" stroke-miterlimit="10"/>
<path d="M66.5 52H90.8529" stroke="#39394C" stroke-width="2" stroke-miterlimit="10"/>
<path d="M71 68H85" stroke="#39394C" stroke-width="2" stroke-miterlimit="10"/>
<path d="M71 74H85" stroke="#39394C" stroke-width="2" stroke-miterlimit="10"/>
<path d="M66.5 86H90.8529" stroke="#39394C" stroke-width="2" stroke-miterlimit="10"/>
<path d="M79.0469 88H77.0469V90H79.0469V88Z" fill="#39394C"/>
<path d="M66 78H21.8857C20.8486 78 20 77.154 20 76.12V32.88C20 31.846 20.8486 31 21.8857 31H84.1143C85.1514 31 86 31.846 86 32.88V46" stroke="#39394C" stroke-width="2" stroke-miterlimit="10"/>
<path d="M20.5 37H86.5" stroke="#39394C" stroke-width="2" stroke-miterlimit="10"/>
<path d="M23.0312 35H25.0312V33H23.0312V35Z" fill="#39394C"/>
<path d="M27 35H29V33H27V35Z" fill="#39394C"/>
<path d="M30.9688 35H32.9688V33H30.9688V35Z" fill="#39394C"/>
<path d="M78 62C79.1046 62 80 61.1046 80 60C80 58.8954 79.1046 58 78 58C76.8954 58 76 58.8954 76 60C76 61.1046 76.8954 62 78 62Z" stroke="#39394C" stroke-width="2" stroke-miterlimit="10"/>
<path d="M39.0039 48H58.0039" stroke="#39394C" stroke-width="2" stroke-miterlimit="10"/>
<path d="M39.0039 54H58.0039" stroke="#39394C" stroke-width="2" stroke-miterlimit="10"/>
<path d="M54.6067 69H31.3308C29.4688 69 27.9688 67.2154 27.9688 65C27.9688 62.7846 29.4688 61 31.3308 61H54.6067C56.4687 61 57.9687 62.7846 57.9687 65C57.9687 67.2154 56.4687 69 54.6067 69Z" fill="#FF4C55"/>
<path d="M35.0081 48.0156H29.0078V54.0156H35.0081V48.0156Z" stroke="#39394C" stroke-width="2"/>
</svg>
