<svg width="112" height="112" viewBox="0 0 112 112" fill="none" xmlns="http://www.w3.org/2000/svg">
<circle cx="56" cy="56" r="55" stroke="#39394C" stroke-width="2"/>
<path d="M56.9868 58.9512C57.8877 58.9512 58.6181 58.2258 58.6181 57.3311C58.6181 56.4363 57.8877 55.7109 56.9868 55.7109C56.0858 55.7109 55.3555 56.4363 55.3555 57.3311C55.3555 58.2258 56.0858 58.9512 56.9868 58.9512Z" stroke="#39394C" stroke-width="2" stroke-miterlimit="10"/>
<path d="M69.2211 51.6582C70.1221 51.6582 70.8525 50.9329 70.8525 50.0381C70.8525 49.1433 70.1221 48.418 69.2211 48.418C68.3202 48.418 67.5898 49.1433 67.5898 50.0381C67.5898 50.9329 68.3202 51.6582 69.2211 51.6582Z" stroke="#39394C" stroke-width="2" stroke-miterlimit="10"/>
<path d="M58.6172 56.7611L68.405 50.8477" stroke="#39394C" stroke-width="2" stroke-miterlimit="10"/>
<path d="M70.0352 49.2299L75.0922 41.7773" stroke="#39394C" stroke-width="2" stroke-miterlimit="10"/>
<path d="M38.225 59.7618C37.3277 59.7618 36.5938 59.0328 36.5938 58.1417V48.4209C36.5938 47.5298 37.3277 46.8008 38.225 46.8008C39.1223 46.8008 39.8563 47.5298 39.8563 48.4209V58.1417C39.8563 59.0328 39.1223 59.7618 38.225 59.7618Z" fill="#FF4C55"/>
<path d="M49.6469 59.7608C48.7497 59.7608 48.0156 59.0318 48.0156 58.1407V53.2803C48.0156 52.3892 48.7497 51.6602 49.6469 51.6602C50.5441 51.6602 51.2782 52.3892 51.2782 53.2803V58.1407C51.2782 59.0318 50.5441 59.7608 49.6469 59.7608Z" fill="#FF4C55"/>
<path d="M43.9321 59.7589C43.0349 59.7589 42.3008 59.0299 42.3008 58.1388V43.5576C42.3008 42.6666 43.0349 41.9375 43.9321 41.9375C44.8293 41.9375 45.5634 42.6666 45.5634 43.5576V58.1388C45.5634 59.0299 44.8293 59.7589 43.9321 59.7589Z" fill="#FF4C55"/>
<path d="M75.7446 41.9395C76.6455 41.9395 77.3759 41.2141 77.3759 40.3194C77.3759 39.4246 76.6455 38.6992 75.7446 38.6992C74.8436 38.6992 74.1133 39.4246 74.1133 40.3194C74.1133 41.2141 74.8436 41.9395 75.7446 41.9395Z" stroke="#39394C" stroke-width="2" stroke-miterlimit="10"/>
<path d="M33.8577 68.6404L33.8579 67.6404H33.8577V68.6404ZM79.1864 68.6404V67.6404H79.1863L79.1864 68.6404ZM56.9855 68.6404L57.6418 67.8859H56.3292L56.9855 68.6404ZM26.8841 32H86.1601V30H26.8841V32ZM85.1601 31V63.1573H87.1601V31H85.1601ZM79.1863 67.6404C61.491 67.6435 51.5658 67.6432 33.8579 67.6404L33.8575 69.6404C51.5657 69.6432 61.4911 69.6435 79.1866 69.6404L79.1863 67.6404ZM27.8841 63.1573V31H25.8841V63.1573H27.8841ZM23 32H26.8841V30H23V32ZM86.1601 32H90V30H86.1601V32ZM33.8577 67.6404C30.3212 67.6404 27.8841 65.4226 27.8841 63.1573H25.8841C25.8841 66.9485 29.6914 69.6404 33.8577 69.6404V67.6404ZM85.1601 63.1573C85.1601 65.4226 82.723 67.6404 79.1864 67.6404V69.6404C83.3528 69.6404 87.1601 66.9485 87.1601 63.1573H85.1601ZM55.9855 68.6404V82H57.9855V68.6404H55.9855ZM56.3292 69.395L67.9814 79.5298L69.294 78.0208L57.6418 67.8859L56.3292 69.395ZM56.3292 67.8859L44.6771 78.0208L45.9896 79.5298L57.6418 69.395L56.3292 67.8859Z" fill="#39394C"/>
</svg>
