<svg width="112" height="112" viewBox="0 0 112 112" fill="none" xmlns="http://www.w3.org/2000/svg">
<circle cx="56" cy="56" r="56" fill="white"/>
<path d="M54.4339 36.139L54.4754 36.1344L54.5164 36.1263C55.1453 36.0023 55.6439 36 56.3849 36C65.7028 36 73.357 43.5434 73.5001 52.8689C73.4984 56.842 72.1092 60.6679 69.4789 63.672C66.2047 67.3628 64.5161 72.2544 64.5161 77.5479C64.5161 77.752 64.4519 77.8463 64.409 77.8886C64.3649 77.9321 64.2621 78 64.0433 78H49.021C48.8022 78 48.6994 77.9321 48.6553 77.8886C48.6124 77.8463 48.5482 77.752 48.5482 77.5479C48.5482 72.3546 46.6844 67.4915 43.1726 63.1257L43.1727 63.1256L43.1643 63.1155C40.1212 59.4331 39.0025 54.7882 39.7003 50.1065C40.8091 42.8694 47.0665 36.9614 54.4339 36.139Z" stroke="#39394C" stroke-width="2"/>
<path d="M57.5 40C64.0366 40 69.4024 45.3659 69.5 52" stroke="#39394C" stroke-width="2" stroke-linecap="round"/>
<path d="M49.5 83H62.5" stroke="#39394C" stroke-width="2" stroke-linecap="round"/>
<path d="M49.5 87H62.5" stroke="#39394C" stroke-width="2" stroke-linecap="round"/>
<path d="M52.9648 91H59.0315" stroke="#39394C" stroke-width="2" stroke-linecap="round"/>
<path d="M33.519 30.4365L39.9188 36.7808M56.5 21V29.9722V21ZM79.481 30.4365L73.0812 36.7808L79.481 30.4365ZM89 53.2183H79.9494H89ZM79.481 76L73.0812 69.6557L79.481 76ZM33.519 76L39.9188 69.6557L33.519 76ZM24 53.2183H33.0506H24Z" stroke="#FF4C55" stroke-width="3" stroke-linecap="round"/>
</svg>
