<svg width="112" height="112" viewBox="0 0 112 112" fill="none" xmlns="http://www.w3.org/2000/svg">
<circle cx="56" cy="56" r="56" fill="white"/>
<path d="M70.6697 91.6455C70.3355 91.6465 70.011 91.5337 69.7497 91.3255C56.7497 81.1355 55.5597 68.5955 54.3997 56.4655C53.2397 44.3355 52.1597 33.0755 40.1597 23.6855C39.8467 23.4376 39.6451 23.0754 39.5991 22.6788C39.5532 22.2821 39.6667 21.8835 39.9147 21.5705C40.1626 21.2576 40.5248 21.056 40.9214 21.01C41.3181 20.9641 41.7167 21.0776 42.0297 21.3255C55.0297 31.5155 56.2297 44.0555 57.3897 56.1855C58.5497 68.3155 59.6197 79.5755 71.5997 88.9655C71.8454 89.1584 72.0248 89.4231 72.1128 89.7228C72.2008 90.0225 72.1931 90.3422 72.0907 90.6373C71.9883 90.9324 71.7963 91.1882 71.5416 91.3689C71.2868 91.5497 70.982 91.6464 70.6697 91.6455ZM65.7197 80.1355C65.384 80.137 65.0573 80.0281 64.7897 79.8255C64.4784 79.5777 64.2776 79.217 64.2307 78.8219C64.1839 78.4268 64.2949 78.0292 64.5397 77.7155L71.9397 68.2655C72.1893 67.9658 72.546 67.7751 72.9339 67.7339C73.3219 67.6927 73.7106 67.8043 74.0176 68.045C74.3247 68.2857 74.5259 68.6365 74.5785 69.0231C74.6312 69.4096 74.5311 69.8015 74.2997 70.1155L66.8997 79.5655C66.7589 79.7436 66.5796 79.8875 66.3752 79.9862C66.1708 80.0849 65.9467 80.136 65.7197 80.1355ZM38.6597 44.9555C38.3253 44.9581 38.0002 44.8451 37.7397 44.6355C37.4269 44.3892 37.2241 44.0292 37.1754 43.634C37.1267 43.2389 37.2361 42.8405 37.4797 42.5255L44.8797 33.0855C45.0011 32.9299 45.1521 32.7998 45.3238 32.7025C45.4956 32.6052 45.6849 32.5427 45.8808 32.5185C46.0767 32.4944 46.2755 32.5091 46.4658 32.5618C46.656 32.6144 46.834 32.7041 46.9897 32.8255C47.1453 32.947 47.2754 33.0979 47.3727 33.2697C47.47 33.4415 47.5325 33.6308 47.5567 33.8267C47.5808 34.0226 47.5661 34.2214 47.5134 34.4116C47.4608 34.6019 47.3711 34.7799 47.2497 34.9355L39.8397 44.3855C39.6989 44.5636 39.5196 44.7075 39.3152 44.8062C39.1108 44.9049 38.8867 44.956 38.6597 44.9555Z" fill="#FF4C55"/>
<path d="M71.4001 85.8256C71.0635 85.8234 70.7368 85.711 70.4701 85.5056C70.1589 85.2577 69.958 84.8971 69.9112 84.502C69.8644 84.1069 69.9754 83.7093 70.2201 83.3956L85.6401 63.7556C85.7623 63.6006 85.9137 63.4712 86.0859 63.3748C86.258 63.2784 86.4474 63.2168 86.6434 63.1936C86.8393 63.1704 87.0379 63.186 87.2278 63.2395C87.4177 63.293 87.5952 63.3834 87.7501 63.5056C87.9051 63.6277 88.0345 63.7792 88.1309 63.9513C88.2273 64.1234 88.2889 64.3129 88.3121 64.5088C88.3354 64.7047 88.3197 64.9033 88.2662 65.0932C88.2127 65.2831 88.1223 65.4606 88.0001 65.6156L72.5801 85.2856C72.436 85.4576 72.2552 85.5954 72.0511 85.6888C71.847 85.7822 71.6246 85.8289 71.4001 85.8256ZM62.1601 71.6656C61.8235 71.6634 61.4968 71.551 61.2301 71.3456C60.9189 71.0977 60.718 70.7371 60.6712 70.342C60.6244 69.9469 60.7354 69.5493 60.9801 69.2356L69.6201 58.2356C69.8698 57.9358 70.2265 57.7451 70.6144 57.7039C71.0024 57.6628 71.3911 57.7743 71.6981 58.015C72.0052 58.2557 72.2063 58.6066 72.259 58.9931C72.3116 59.3797 72.2116 59.7715 71.9801 60.0856L63.3401 71.0856C63.1999 71.265 63.0209 71.4103 62.8166 71.5107C62.6122 71.6112 62.3878 71.6641 62.1601 71.6656ZM74.9301 68.3356C74.6497 68.3324 74.3757 68.2511 74.1388 68.1009C73.902 67.9507 73.7116 67.7376 73.5891 67.4853C73.4666 67.233 73.4168 66.9516 73.4452 66.6725C73.4737 66.3935 73.5792 66.128 73.7501 65.9056L78.6901 59.6156C78.8092 59.454 78.9596 59.318 79.1322 59.2156C79.3048 59.1131 79.4962 59.0464 79.6951 59.0193C79.894 58.9922 80.0963 59.0053 80.29 59.0579C80.4838 59.1104 80.665 59.2012 80.823 59.3251C80.9809 59.4489 81.1124 59.6032 81.2097 59.7788C81.307 59.9544 81.368 60.1477 81.3892 60.3473C81.4104 60.5469 81.3913 60.7487 81.333 60.9408C81.2748 61.1329 81.1786 61.3113 81.0501 61.4656L76.1601 67.7556C76.0204 67.938 75.8401 68.0854 75.6336 68.186C75.4271 68.2867 75.1999 68.3379 74.9701 68.3356H74.9301ZM92.2301 64.1056C91.8935 64.1034 91.5668 63.991 91.3001 63.7856C79.3001 54.3856 68.0301 56.0456 56.0701 57.7856C44.1101 59.5256 31.5901 61.4156 18.5901 51.2256C18.4326 51.1041 18.3004 50.9528 18.2013 50.7802C18.1022 50.6077 18.0381 50.4174 18.0125 50.22C17.961 49.8215 18.0698 49.4188 18.3151 49.1006C18.5605 48.7823 18.9222 48.5745 19.3207 48.523C19.7192 48.4714 20.1219 48.5802 20.4401 48.8256C32.4401 58.2256 43.7201 56.5656 55.6701 54.8256C67.6201 53.0856 80.1601 51.2356 93.1601 61.4156C93.4092 61.6067 93.5921 61.8712 93.6829 62.1718C93.7737 62.4724 93.7679 62.7939 93.6663 63.091C93.5647 63.3881 93.3724 63.6458 93.1165 63.8278C92.8607 64.0099 92.5541 64.107 92.2401 64.1056H92.2301ZM40.9101 55.0056C40.5727 55.008 40.2446 54.8951 39.9801 54.6856C39.6695 54.4395 39.4689 54.0806 39.4221 53.6871C39.3752 53.2937 39.486 52.8977 39.7301 52.5856L48.3601 41.5856C48.4816 41.43 48.6325 41.2998 48.8043 41.2025C48.9761 41.1052 49.1654 41.0427 49.3613 41.0186C49.5572 40.9944 49.756 41.0091 49.9462 41.0618C50.1365 41.1145 50.3145 41.2041 50.4701 41.3256C50.6258 41.447 50.7559 41.598 50.8532 41.7698C50.9505 41.9415 51.013 42.1308 51.0371 42.3267C51.0613 42.5227 51.0466 42.7214 50.9939 42.9117C50.9412 43.1019 50.8516 43.28 50.7301 43.4356L42.1601 54.4356C42.0148 54.616 41.8303 54.7611 41.6207 54.8598C41.4111 54.9585 41.1818 55.0084 40.9501 55.0056H40.9101ZM31.8401 53.6156C31.5035 53.6134 31.1768 53.501 30.9101 53.2956C30.7549 53.1736 30.6253 53.0223 30.5287 52.8501C30.4321 52.678 30.3704 52.4885 30.3471 52.2925C30.3239 52.0964 30.3396 51.8978 30.3933 51.7078C30.447 51.5179 30.5377 51.3404 30.6601 51.1856L35.5901 44.8956C35.7092 44.734 35.8596 44.598 36.0322 44.4956C36.2048 44.3931 36.3962 44.3264 36.5951 44.2993C36.794 44.2722 36.9963 44.2853 37.19 44.3379C37.3838 44.3904 37.565 44.4812 37.723 44.6051C37.8809 44.7289 38.0124 44.8832 38.1097 45.0588C38.207 45.2344 38.268 45.4277 38.2892 45.6273C38.3104 45.8269 38.2913 46.0287 38.233 46.2208C38.1748 46.4129 38.0786 46.5913 37.9501 46.7456L33.0601 53.0356C32.9199 53.215 32.7409 53.3603 32.5366 53.4608C32.3322 53.5612 32.1078 53.6141 31.8801 53.6156H31.8401ZM24.9601 49.4656C24.6257 49.4682 24.3007 49.3551 24.0401 49.1456C23.7274 48.8992 23.5246 48.5392 23.4759 48.1441C23.4272 47.7489 23.5365 47.3505 23.7801 47.0356L39.1601 27.3656C39.2816 27.21 39.4325 27.0798 39.6043 26.9825C39.7761 26.8852 39.9654 26.8227 40.1613 26.7986C40.3572 26.7744 40.556 26.7891 40.7462 26.8418C40.9365 26.8945 41.1145 26.9841 41.2701 27.1056C41.4258 27.227 41.5559 27.378 41.6532 27.5498C41.7505 27.7215 41.813 27.9108 41.8371 28.1067C41.8613 28.3027 41.8466 28.5014 41.7939 28.6917C41.7412 28.8819 41.6516 29.06 41.5301 29.2156L26.1601 48.8856C26.0194 49.0694 25.8375 49.2176 25.6291 49.3183C25.4207 49.419 25.1916 49.4695 24.9601 49.4656Z" fill="#39394C"/>
</svg>
