<svg width="330" height="77" viewBox="0 0 330 77" fill="none" xmlns="http://www.w3.org/2000/svg">
<path d="M2.30783 34.8556L52.9527 0.961629C55.1595 -0.320543 57.8627 -0.320543 60.0695 0.961629L110.714 34.8556C112.7 35.859 113.583 38.2561 112.59 40.3187C112.204 41.1549 111.542 41.8239 110.714 42.2141L103.929 46.7296C87.3228 20.25 52.6769 12.3897 26.4717 29.1137C19.4653 33.6291 13.5071 39.594 9.03842 46.7296L2.1975 42.2141C0.211424 41.1549 -0.560937 38.7021 0.432099 36.6952C0.873449 35.9148 1.53547 35.2458 2.30783 34.8556ZM56.4283 34.4653C41.919 34.5211 28.4026 42.0469 20.679 54.4784L32.3196 62.2829C40.3191 48.848 57.5869 44.5555 70.8274 52.6387C74.7443 55.0358 77.9993 58.3249 80.3715 62.2829L92.0121 54.4784C84.3989 41.9911 70.9377 34.4096 56.4283 34.4653ZM56.4283 62.7846C51.2976 62.8404 46.6083 65.6277 44.0705 70.1432L51.9045 75.3276C53.1734 76.4425 54.7733 77 56.4283 77C58.0834 77 59.7385 76.3868 60.9522 75.3276L68.7861 70.1432C66.3035 65.572 61.559 62.7846 56.4283 62.7846Z" fill="url(#paint0_linear_603_1225)"/>
<path d="M144.08 37.7561L156.72 55.6448H147.817L138.254 41.7675V55.6448H131V20.1926H138.254V34.3409L147.322 20.1926H155.676L144.08 37.7561ZM169.195 20.301H161.941V55.7532H180.461V48.5977H169.03L169.195 20.301ZM201.895 19L217.008 55.699H208.874L207.445 51.8502H195.52L194.091 55.699H185.902L201.015 19H201.895ZM204.808 45.2368L201.565 36.0756L198.213 45.2368H204.808ZM227.175 39.9786L219.756 20.301H211.622L226.735 57H227.45L242.563 20.301H234.374L227.175 39.9786ZM248.114 55.7532H255.368V20.301H248.114V55.7532ZM284.056 20.301L276.747 32.5521L269.437 20.301H260.699L273.174 39.7618V55.7532H280.319V39.7618L292.904 20.301H284.056ZM330 37.3766C330 47.5135 321.647 55.7532 311.37 55.7532C301.093 55.7532 292.739 47.5135 292.739 37.3766C292.739 27.2397 301.093 19 311.37 19C321.701 19.0542 330 27.2397 330 37.3766ZM323.02 37.3766C323.02 31.0342 317.8 25.9387 311.424 25.9387C304.994 25.9387 299.829 31.0884 299.829 37.3766C299.829 43.6648 305.049 48.8145 311.424 48.8145C317.8 48.8145 323.02 43.719 323.02 37.4308C323.02 37.4308 323.02 37.4308 323.02 37.3766Z" fill="#39394C"/>
<defs>
<linearGradient id="paint0_linear_603_1225" x1="56.4747" y1="76.9802" x2="56.4747" y2="0.00922153" gradientUnits="userSpaceOnUse">
<stop stop-color="#EFC119"/>
<stop offset="0.3314" stop-color="#92C84E"/>
<stop offset="0.4859" stop-color="#71BF5B"/>
<stop offset="0.7506" stop-color="#15B158"/>
<stop offset="0.903" stop-color="#23AC69"/>
<stop offset="1" stop-color="#23AC69"/>
</linearGradient>
</defs>
</svg>
