<svg width="260" height="74" viewBox="0 0 260 74" fill="none" xmlns="http://www.w3.org/2000/svg">
<path d="M56.1456 14.3197C56.1217 14.1675 56.0481 14.0275 55.9361 13.9212C55.8241 13.8149 55.6799 13.7483 55.5259 13.7317L49.6954 13.3117L45.4986 8.99966C45.271 8.84311 45.0087 8.74355 44.7341 8.70942C44.4595 8.67529 44.1806 8.70762 43.9213 8.80366L41.7806 9.44766C40.4004 5.86366 38.1189 2.47566 34.2319 2.47566H33.8939C33.4774 1.85735 32.9223 1.34342 32.2723 0.974201C31.6224 0.604984 30.8951 0.390525 30.1478 0.347656C20.8246 0.347656 16.3743 11.9117 14.9941 17.7917L8.45945 19.8077C6.43145 20.4237 6.37511 20.5077 6.12161 22.3837C5.92445 23.8117 0.488281 64.3837 0.488281 64.3837L41.6679 72.0557L64.0041 67.2677L56.1456 14.3197ZM39.4146 10.2317L35.9219 11.3237V10.5677C35.9632 8.66892 35.6872 6.77655 35.1051 4.96766C37.0486 5.21966 38.5414 7.57166 39.4146 10.2317ZM32.5419 5.41566C33.2598 7.46543 33.5847 9.63085 33.4996 11.7997C33.5147 11.9299 33.5147 12.0614 33.4996 12.1917L26.3171 14.4317C26.5823 12.5526 27.2826 10.7603 28.3627 9.19579C29.4429 7.63132 30.8734 6.33734 32.5419 5.41566ZM29.7253 2.81166C30.1544 2.82366 30.5686 2.97072 30.9083 3.23166C27.9226 4.63166 24.7398 8.13166 23.3878 15.1597L17.7544 16.9237C19.3318 11.5477 22.9653 2.81166 29.7816 2.81166H29.7253Z" fill="#9DBD31"/>
<path d="M55.5252 13.7317L49.6946 13.3117L45.4978 8.99973C45.343 8.83594 45.1318 8.736 44.9063 8.71973L41.6953 72.1397L64.0315 67.3517L56.1448 14.3197C56.1209 14.1676 56.0473 14.0276 55.9353 13.9213C55.8233 13.815 55.6791 13.7484 55.5252 13.7317Z" fill="#5F8C2F"/>
<path d="M34.2327 25.9956L31.416 34.1996C29.7401 33.3817 27.903 32.9418 26.0362 32.9116C21.6985 32.9116 21.5013 35.7116 21.5013 36.2996C21.5013 40.0236 31.247 41.4236 31.247 50.1316C31.247 56.9916 26.853 61.3316 20.9662 61.3316C18.9753 61.391 16.9944 61.0299 15.1542 60.2721C13.314 59.5143 11.6565 58.3771 10.291 56.9356L12.1782 50.7196C14.1141 52.3624 16.4765 53.4299 18.9945 53.7996C19.7415 53.7996 20.458 53.5046 20.9862 52.9795C21.5144 52.4544 21.8112 51.7422 21.8112 50.9996C21.8112 46.1556 13.8118 45.9316 13.8118 37.9796C13.8118 31.2596 18.6565 24.7916 28.4304 24.7916C30.4351 24.7067 32.4295 25.1205 34.2327 25.9956Z" fill="white"/>
<path d="M90.0587 41.2557C87.8335 40.0517 86.6787 39.0437 86.6787 37.6437C86.6787 36.2437 88.256 34.8437 90.7347 34.8437C92.6267 34.8878 94.492 35.2967 96.2272 36.0477L98.2552 29.8597C95.9949 28.6578 93.4262 28.151 90.8755 28.4037C83.2142 28.4037 77.8907 32.7717 77.8907 38.9037C78.0454 40.6369 78.6654 42.297 79.6861 43.7106C80.7068 45.1242 82.0906 46.2394 83.693 46.9397C86.3689 48.4517 87.3265 49.5157 87.3265 51.1117C87.3265 52.7077 85.9745 54.0797 83.4959 54.0797C80.9902 53.9763 78.5381 53.3263 76.3134 52.1757L74.1445 58.3637C76.7751 59.8532 79.7654 60.5987 82.7917 60.5197C90.6784 60.5197 96.3399 56.6557 96.3399 49.7117C96.3399 45.8757 93.3824 43.2157 90.0587 41.2557Z" fill="#39394C"/>
<path d="M121.549 28.2357C119.749 28.2537 117.976 28.6791 116.366 29.4796C114.755 30.2801 113.349 31.4346 112.254 32.8557L115.634 15.3557H106.649L98.1992 59.9317H106.903L109.719 44.6997C110.874 38.9317 113.86 35.4037 116.648 35.4037C118.62 35.4037 119.465 36.7197 119.465 38.6237C119.47 39.9112 119.347 41.1961 119.099 42.4597L115.916 59.8477H124.704L128.14 41.8157C128.502 39.9693 128.709 38.0962 128.76 36.2157C128.647 31.2037 126.056 28.2357 121.549 28.2357Z" fill="#39394C"/>
<path d="M148.504 28.2356C137.942 28.2356 130.956 37.6996 130.956 48.2556C130.837 49.8722 131.067 51.4955 131.629 53.017C132.192 54.5385 133.074 55.9232 134.218 57.0786C135.362 58.2341 136.74 59.1337 138.261 59.7174C139.783 60.3011 141.412 60.5555 143.04 60.4636C153.405 60.4636 160.39 51.2516 160.39 40.4156C160.535 38.8112 160.33 37.1947 159.789 35.6764C159.248 34.1581 158.384 32.7736 157.255 31.6175C156.127 30.4614 154.761 29.5608 153.251 28.9771C151.741 28.3935 150.122 28.1406 148.504 28.2356ZM144.082 53.7996C141.096 53.7996 139.829 51.2796 139.829 48.1996C139.829 43.1876 142.448 35.0396 147.208 35.0396C150.335 35.0396 151.349 37.6996 151.349 40.2756C151.433 45.5396 148.814 53.7996 144.082 53.7996Z" fill="#39394C"/>
<path d="M182.838 28.2356C180.993 28.3332 179.195 28.8511 177.583 29.7492C175.972 30.6474 174.589 31.9018 173.543 33.4156L174.05 28.7396H166.191C165.797 31.9036 165.093 36.6916 164.389 40.3036L158.305 72.2236H167.065L169.431 59.3996H169.628C171.22 60.2087 172.996 60.5945 174.782 60.5196C185.063 60.5196 191.682 50.0196 191.682 39.4076C191.964 33.4716 189.147 28.2356 182.838 28.2356ZM174.388 53.8836C173.065 53.9006 171.779 53.4546 170.754 52.6236L172.247 44.4756C173.261 39.0436 176.134 35.4316 179.176 35.4316C182.218 35.4316 182.697 37.8956 182.697 40.2476C182.725 45.8756 179.345 53.7996 174.444 53.7996L174.388 53.8836Z" fill="#39394C"/>
<path d="M204.415 15.7197C203.75 15.7159 203.09 15.8439 202.475 16.0962C201.86 16.3485 201.301 16.7201 200.832 17.1892C200.363 17.6583 199.992 18.2156 199.742 18.8287C199.491 19.4417 199.366 20.0981 199.374 20.7597C199.326 21.3239 199.398 21.8917 199.586 22.4262C199.774 22.9607 200.073 23.45 200.463 23.862C200.854 24.2741 201.328 24.5997 201.853 24.8178C202.379 25.0359 202.945 25.1414 203.514 25.1277H203.655C204.328 25.166 205.002 25.0667 205.634 24.8358C206.267 24.605 206.846 24.2477 207.334 23.7858C207.823 23.3239 208.21 22.7674 208.474 22.1505C208.737 21.5337 208.871 20.8697 208.866 20.1997C208.921 19.6024 208.844 19.0004 208.641 18.4358C208.438 17.8711 208.113 17.3574 207.689 16.9307C207.265 16.504 206.752 16.1745 206.187 15.9653C205.621 15.7561 205.017 15.6723 204.415 15.7197Z" fill="#39394C"/>
<path d="M192.133 59.8477H200.893L206.892 28.9077H198.048L192.133 59.8477Z" fill="#39394C"/>
<path d="M229.202 28.8517H223.118L223.428 27.3957C223.935 24.4277 225.709 21.7957 228.638 21.7957C229.595 21.7959 230.546 21.9471 231.455 22.2437L233.173 15.4117C231.653 14.8066 230.021 14.5298 228.385 14.5997C225.278 14.4898 222.233 15.4823 219.794 17.3997C217.007 20.0062 215.207 23.4862 214.696 27.2557L214.442 28.7117H210.386L209.119 35.2917H213.175L208.527 59.7077H217.315L221.963 35.2917H227.991L229.202 28.8517Z" fill="#39394C"/>
<path d="M250.327 28.9355C250.327 28.9355 244.694 42.6555 242.384 50.1595H242.244C242.075 47.7515 240.075 28.9355 240.075 28.9355H230.864L236.131 57.2995C236.208 57.5404 236.233 57.7946 236.204 58.0455C236.174 58.2964 236.092 58.5384 235.962 58.7555C234.817 60.8687 233.174 62.6748 231.174 64.0195C229.655 65.0836 227.984 65.9143 226.217 66.4835L228.583 73.8755C231.744 73.0039 234.645 71.3798 237.033 69.1435C241.862 64.0799 245.761 58.2138 248.553 51.8115L259.566 28.9355H250.327Z" fill="#39394C"/>
</svg>
